G04 #@! TF.FileFunction,Soldermask,Bot*
%FSLAX46Y46*%
G04 Gerber Fmt 4.6, Leading zero omitted, Abs format (unit mm)*
G04 Created by KiCad (PCBNEW 4.0.5+dfsg1-4) date Mon Jun 25 17:19:19 2018*
%MOMM*%
%LPD*%
G01*
G04 APERTURE LIST*
%ADD10C,0.100000*%
%ADD11R,1.900000X2.600000*%
%ADD12O,1.900000X2.600000*%
%ADD13O,1.900000X2.400000*%
%ADD14R,1.900000X2.400000*%
%ADD15R,1.700000X1.700000*%
%ADD16C,1.700000*%
%ADD17C,2.398980*%
%ADD18R,2.398980X2.398980*%
%ADD19C,2.099260*%
%ADD20R,2.099260X2.099260*%
%ADD21R,2.940000X2.940000*%
%ADD22C,2.940000*%
%ADD23R,2.127200X2.432000*%
%ADD24O,2.127200X2.432000*%
%ADD25O,1.901140X2.899360*%
%ADD26O,2.000000X2.000000*%
%ADD27C,4.464000*%
G04 APERTURE END LIST*
D10*
D11*
X97840000Y-61330000D03*
D12*
X100380000Y-61330000D03*
D13*
X189280000Y-64120000D03*
X186740000Y-64120000D03*
X184200000Y-64120000D03*
X181660000Y-64120000D03*
X179120000Y-64120000D03*
X176580000Y-64120000D03*
X174040000Y-64120000D03*
X171500000Y-64120000D03*
X168960000Y-64120000D03*
X166420000Y-64120000D03*
X163880000Y-64120000D03*
X161340000Y-64120000D03*
X158800000Y-64120000D03*
X156260000Y-64120000D03*
X153720000Y-64120000D03*
X151180000Y-64120000D03*
X148640000Y-64120000D03*
X146100000Y-64120000D03*
X143560000Y-64120000D03*
X141020000Y-64120000D03*
X138480000Y-64120000D03*
X135940000Y-64120000D03*
X133400000Y-64120000D03*
X130860000Y-64120000D03*
D14*
X128320000Y-64120000D03*
D13*
X128320000Y-61080000D03*
X130860000Y-61080000D03*
X133400000Y-61080000D03*
X135940000Y-61080000D03*
X138480000Y-61080000D03*
X141020000Y-61080000D03*
X143560000Y-61080000D03*
X146100000Y-61080000D03*
X148640000Y-61080000D03*
X151180000Y-61080000D03*
X153720000Y-61080000D03*
X156260000Y-61080000D03*
X158800000Y-61080000D03*
X161340000Y-61080000D03*
X163880000Y-61080000D03*
X166420000Y-61080000D03*
X168960000Y-61080000D03*
X171500000Y-61080000D03*
X174040000Y-61080000D03*
X176580000Y-61080000D03*
X179120000Y-61080000D03*
X181660000Y-61080000D03*
X184200000Y-61080000D03*
X186740000Y-61080000D03*
X189280000Y-61080000D03*
X189280000Y-111880000D03*
X186740000Y-111880000D03*
X184200000Y-111880000D03*
X181660000Y-111880000D03*
X179120000Y-111880000D03*
X176580000Y-111880000D03*
X174040000Y-111880000D03*
X171500000Y-111880000D03*
X168960000Y-111880000D03*
X166420000Y-111880000D03*
X163880000Y-111880000D03*
X161340000Y-111880000D03*
X158800000Y-111880000D03*
X156260000Y-111880000D03*
X153720000Y-111880000D03*
X151180000Y-111880000D03*
X148640000Y-111880000D03*
X146100000Y-111880000D03*
X143560000Y-111880000D03*
X141020000Y-111880000D03*
X138480000Y-111880000D03*
X135940000Y-111880000D03*
X133400000Y-111880000D03*
X130860000Y-111880000D03*
X128320000Y-111880000D03*
D14*
X128320000Y-114920000D03*
D13*
X130860000Y-114920000D03*
X133400000Y-114920000D03*
X135940000Y-114920000D03*
X138480000Y-114920000D03*
X141020000Y-114920000D03*
X143560000Y-114920000D03*
X146100000Y-114920000D03*
X148640000Y-114920000D03*
X151180000Y-114920000D03*
X153720000Y-114920000D03*
X156260000Y-114920000D03*
X158800000Y-114920000D03*
X161340000Y-114920000D03*
X163880000Y-114920000D03*
X166420000Y-114920000D03*
X168960000Y-114920000D03*
X171500000Y-114920000D03*
X174040000Y-114920000D03*
X176580000Y-114920000D03*
X179120000Y-114920000D03*
X181660000Y-114920000D03*
X184200000Y-114920000D03*
X186740000Y-114920000D03*
X189280000Y-114920000D03*
D12*
X100380000Y-114670000D03*
D11*
X97840000Y-114670000D03*
D15*
X187000000Y-82000000D03*
D16*
X187000000Y-79500000D03*
D15*
X162000000Y-52000000D03*
D16*
X162000000Y-49500000D03*
D15*
X152000000Y-47000000D03*
D16*
X152000000Y-50800000D03*
D15*
X159500000Y-45500000D03*
D16*
X162000000Y-45500000D03*
D15*
X167500000Y-101000000D03*
D16*
X165000000Y-101000000D03*
D15*
X175000000Y-87000000D03*
D16*
X177500000Y-87000000D03*
D15*
X182000000Y-92500000D03*
D16*
X182000000Y-95000000D03*
D15*
X197000000Y-72000000D03*
D16*
X199500000Y-72000000D03*
D15*
X159000000Y-78000000D03*
D16*
X159000000Y-81800000D03*
D17*
X177160000Y-51997460D03*
D18*
X167000000Y-51997460D03*
D19*
X107002540Y-84160520D03*
D20*
X107002540Y-74000520D03*
D21*
X190040000Y-47000000D03*
D22*
X184960000Y-47000000D03*
D21*
X131540000Y-47000000D03*
D22*
X126460000Y-47000000D03*
D21*
X102540000Y-47000000D03*
D22*
X97460000Y-47000000D03*
D21*
X199000000Y-102540000D03*
D22*
X199000000Y-97460000D03*
D21*
X103460000Y-126000000D03*
D22*
X108540000Y-126000000D03*
D23*
X125000000Y-126000000D03*
D24*
X127540000Y-126000000D03*
X130080000Y-126000000D03*
X132620000Y-126000000D03*
D23*
X141000000Y-126000000D03*
D24*
X143540000Y-126000000D03*
X146080000Y-126000000D03*
X148620000Y-126000000D03*
X151160000Y-126000000D03*
D23*
X159000000Y-126000000D03*
D24*
X161540000Y-126000000D03*
X164080000Y-126000000D03*
X166620000Y-126000000D03*
X169160000Y-126000000D03*
D17*
X134000000Y-84000000D03*
X134000000Y-73840000D03*
X107000000Y-69000000D03*
X107000000Y-58840000D03*
X157000000Y-88000000D03*
X167160000Y-88000000D03*
X182000000Y-101000000D03*
X171840000Y-101000000D03*
X187000000Y-86000000D03*
X187000000Y-96160000D03*
X187000000Y-72000000D03*
X176840000Y-72000000D03*
D21*
X199000000Y-79920000D03*
D22*
X199000000Y-85000000D03*
X199000000Y-90080000D03*
D25*
X172000000Y-47000000D03*
X169460000Y-47000000D03*
X174540000Y-47000000D03*
D26*
X115000000Y-75000000D03*
X115000000Y-77540000D03*
X115000000Y-80080000D03*
X115000000Y-82620000D03*
X122620000Y-82620000D03*
X122620000Y-80080000D03*
X122620000Y-77540000D03*
X122620000Y-75000000D03*
D27*
X90000000Y-46000000D03*
X90000000Y-126000000D03*
X200000000Y-126000000D03*
X200000000Y-46000000D03*
D17*
X155800000Y-69500000D03*
X165960000Y-69500000D03*
X165975000Y-72750000D03*
X155815000Y-72750000D03*
M02*
